<mxfile host="app.diagrams.net" modified="2023-08-10T20:44:47.008Z" agent="Mozilla/5.0 (Windows NT 10.0; Win64; x64) AppleWebKit/537.36 (KHTML, like Gecko) Chrome/115.0.0.0 Safari/537.36" etag="7KYaMxAlQNCSjzDSxXK5" version="21.6.2" type="device">
  <diagram id="33OmDrIaeGSOIB73MbsL" name="Topologia">
    <mxGraphModel dx="1674" dy="781" grid="1" gridSize="10" guides="1" tooltips="1" connect="1" arrows="1" fold="1" page="1" pageScale="1" pageWidth="827" pageHeight="1169" math="0" shadow="0">
      <root>
        <mxCell id="0" />
        <mxCell id="1" parent="0" />
        <mxCell id="o23Nrrs_6emBy7w_cN3G-1" value="&lt;span style=&quot;&quot;&gt;&lt;font color=&quot;#ff0000&quot; face=&quot;Courier New&quot;&gt;LAN&lt;br&gt;192.168.10.0/27&lt;/font&gt;&lt;br&gt;&lt;/span&gt;" style="html=1;fontColor=#FF3333;fontStyle=0;align=left;verticalAlign=top;spacing=0;labelBorderColor=none;fillColor=none;dashed=1;strokeWidth=1;strokeColor=#FF0000;spacingLeft=4;spacingTop=-3;" parent="1" vertex="1">
          <mxGeometry x="80" y="460" width="640" height="360" as="geometry" />
        </mxCell>
        <mxCell id="o23Nrrs_6emBy7w_cN3G-4" value="&lt;font color=&quot;#3333ff&quot; style=&quot;&quot;&gt;&lt;font face=&quot;Courier New&quot;&gt;DMZ&lt;br&gt;192.168.10.32/27&lt;/font&gt;&lt;br&gt;&lt;/font&gt;" style="html=1;fontColor=#FF3333;fontStyle=0;align=left;verticalAlign=top;spacing=0;labelBorderColor=none;fillColor=none;dashed=1;strokeWidth=1;strokeColor=#3333FF;spacingLeft=4;spacingTop=-3;" parent="1" vertex="1">
          <mxGeometry x="80" y="220" width="640" height="240" as="geometry" />
        </mxCell>
        <mxCell id="arEiqzPymut2pV-jFZNy-126" value="&lt;font face=&quot;Courier New&quot; color=&quot;#b266ff&quot;&gt;&lt;span style=&quot;&quot;&gt;DHCP Reservation&lt;/span&gt;&lt;/font&gt;" style="html=1;fontColor=#FF3333;fontStyle=0;align=left;verticalAlign=top;spacing=0;labelBorderColor=none;fillColor=none;dashed=1;strokeWidth=1;strokeColor=#B266FF;spacingLeft=4;spacingTop=-3;" parent="1" vertex="1">
          <mxGeometry x="230" y="680" width="220" height="130" as="geometry" />
        </mxCell>
        <mxCell id="a8zwOk9L44SKZ_68pjwN-44" style="edgeStyle=orthogonalEdgeStyle;rounded=1;orthogonalLoop=1;jettySize=auto;html=1;exitX=0.5;exitY=0;exitDx=0;exitDy=0;endArrow=none;endFill=0;strokeColor=default;elbow=vertical;entryX=0.5;entryY=1;entryDx=0;entryDy=0;strokeWidth=1;fontStyle=0" parent="1" source="a8zwOk9L44SKZ_68pjwN-42" target="a8zwOk9L44SKZ_68pjwN-40" edge="1">
          <mxGeometry relative="1" as="geometry">
            <mxPoint x="170" y="350" as="sourcePoint" />
            <mxPoint x="10" y="310" as="targetPoint" />
            <Array as="points" />
          </mxGeometry>
        </mxCell>
        <mxCell id="TXaRUqyJ7K6isS5sePby-1" value="&lt;span style=&quot;&quot;&gt;&lt;font color=&quot;#b266ff&quot; face=&quot;Courier New&quot;&gt;DHCP - .10.11-.10.30&lt;/font&gt;&lt;br&gt;&lt;/span&gt;" style="html=1;fontColor=#FF3333;fontStyle=0;align=left;verticalAlign=top;spacing=0;labelBorderColor=none;fillColor=none;dashed=1;strokeWidth=1;strokeColor=#B266FF;spacingLeft=4;spacingTop=-3;" parent="1" vertex="1">
          <mxGeometry x="470" y="510" width="220" height="300" as="geometry" />
        </mxCell>
        <mxCell id="o23Nrrs_6emBy7w_cN3G-2" value="&lt;font face=&quot;Courier New&quot; color=&quot;#00cc00&quot; style=&quot;&quot;&gt;WAN&lt;br&gt;XXX.XXX.XXX.XXX/XX&lt;br&gt;&lt;/font&gt;" style="html=1;fontColor=#FF3333;fontStyle=0;align=left;verticalAlign=top;spacing=0;labelBorderColor=none;fillColor=none;dashed=1;strokeWidth=1;strokeColor=#00CC00;spacingLeft=4;spacingTop=-3;" parent="1" vertex="1">
          <mxGeometry x="80" width="640" height="220" as="geometry" />
        </mxCell>
        <mxCell id="a8zwOk9L44SKZ_68pjwN-39" style="edgeStyle=orthogonalEdgeStyle;rounded=1;orthogonalLoop=1;jettySize=auto;html=1;endArrow=none;endFill=0;strokeColor=default;elbow=vertical;entryX=0.5;entryY=0;entryDx=0;entryDy=0;fontStyle=0;exitX=1;exitY=0.5;exitDx=0;exitDy=0;" parent="1" source="5iX69bP8DZIQJmz3BlHw-1" target="a8zwOk9L44SKZ_68pjwN-38" edge="1">
          <mxGeometry relative="1" as="geometry">
            <mxPoint x="280" y="180" as="sourcePoint" />
            <Array as="points" />
          </mxGeometry>
        </mxCell>
        <mxCell id="a8zwOk9L44SKZ_68pjwN-35" value="" style="image;html=1;image=img/lib/clip_art/networking/Switch_128x128.png;strokeColor=#3333FF;labelBorderColor=none;fontStyle=0" parent="1" vertex="1">
          <mxGeometry x="360" y="260" width="80" height="80" as="geometry" />
        </mxCell>
        <mxCell id="a8zwOk9L44SKZ_68pjwN-36" value="&lt;font face=&quot;Courier New&quot;&gt;&lt;span&gt;caserver01&lt;br&gt;&lt;/span&gt;.10.2&lt;br&gt;&lt;/font&gt;" style="image;html=1;image=img/lib/clip_art/computers/Server_Tower_128x128.png;strokeColor=#3333FF;fontStyle=0" parent="1" vertex="1">
          <mxGeometry x="120" y="700" width="80" height="80" as="geometry" />
        </mxCell>
        <mxCell id="a8zwOk9L44SKZ_68pjwN-37" value="&lt;font face=&quot;Courier New&quot;&gt;&lt;span&gt;caserver02&lt;/span&gt;&lt;br&gt;.10.35&lt;br&gt;&lt;/font&gt;" style="image;html=1;image=img/lib/clip_art/computers/Server_Tower_128x128.png;strokeColor=#3333FF;fontStyle=0" parent="1" vertex="1">
          <mxGeometry x="600" y="340" width="80" height="80" as="geometry" />
        </mxCell>
        <mxCell id="a8zwOk9L44SKZ_68pjwN-38" value="&lt;font face=&quot;Courier New&quot;&gt;wan&lt;/font&gt;" style="image;html=1;image=img/lib/clip_art/networking/Cloud_128x128.png;strokeColor=#3333FF;fontStyle=0" parent="1" vertex="1">
          <mxGeometry x="600" y="100" width="80" height="80" as="geometry" />
        </mxCell>
        <mxCell id="a8zwOk9L44SKZ_68pjwN-42" value="&lt;span&gt;cacit01&lt;/span&gt;" style="image;html=1;image=img/lib/clip_art/computers/Laptop_128x128.png;strokeColor=#3333FF;fontFamily=Courier New;fontStyle=0" parent="1" vertex="1">
          <mxGeometry x="240" y="700" width="80" height="80" as="geometry" />
        </mxCell>
        <mxCell id="a8zwOk9L44SKZ_68pjwN-43" value="&lt;span&gt;cacit02&lt;/span&gt;" style="image;html=1;image=img/lib/clip_art/computers/Laptop_128x128.png;strokeColor=#3333FF;fontFamily=Courier New;fontStyle=0" parent="1" vertex="1">
          <mxGeometry x="360" y="700" width="80" height="80" as="geometry" />
        </mxCell>
        <mxCell id="a8zwOk9L44SKZ_68pjwN-45" style="edgeStyle=orthogonalEdgeStyle;rounded=1;orthogonalLoop=1;jettySize=auto;html=1;exitX=0.5;exitY=0;exitDx=0;exitDy=0;endArrow=none;endFill=0;strokeColor=default;elbow=vertical;entryX=0.5;entryY=1;entryDx=0;entryDy=0;strokeWidth=1;fontStyle=0" parent="1" source="a8zwOk9L44SKZ_68pjwN-43" target="a8zwOk9L44SKZ_68pjwN-40" edge="1">
          <mxGeometry relative="1" as="geometry">
            <mxPoint x="-30" y="750" as="sourcePoint" />
            <mxPoint x="290" y="590" as="targetPoint" />
            <Array as="points" />
          </mxGeometry>
        </mxCell>
        <mxCell id="a8zwOk9L44SKZ_68pjwN-46" style="edgeStyle=orthogonalEdgeStyle;rounded=1;orthogonalLoop=1;jettySize=auto;html=1;exitX=0.5;exitY=1;exitDx=0;exitDy=0;endArrow=none;endFill=0;strokeColor=default;elbow=vertical;entryX=0.5;entryY=0;entryDx=0;entryDy=0;strokeWidth=1;fontStyle=0" parent="1" source="a8zwOk9L44SKZ_68pjwN-40" target="a8zwOk9L44SKZ_68pjwN-36" edge="1">
          <mxGeometry relative="1" as="geometry">
            <mxPoint x="170" y="350" as="sourcePoint" />
            <mxPoint x="10" y="310" as="targetPoint" />
            <Array as="points" />
          </mxGeometry>
        </mxCell>
        <mxCell id="a8zwOk9L44SKZ_68pjwN-48" style="edgeStyle=orthogonalEdgeStyle;rounded=1;orthogonalLoop=1;jettySize=auto;html=1;exitX=0.5;exitY=0;exitDx=0;exitDy=0;endArrow=none;endFill=0;strokeColor=default;elbow=vertical;entryX=0.5;entryY=1;entryDx=0;entryDy=0;fontStyle=0" parent="1" source="a8zwOk9L44SKZ_68pjwN-40" edge="1">
          <mxGeometry relative="1" as="geometry">
            <mxPoint x="930" y="90" as="sourcePoint" />
            <mxPoint x="280" y="500" as="targetPoint" />
            <Array as="points" />
          </mxGeometry>
        </mxCell>
        <mxCell id="a8zwOk9L44SKZ_68pjwN-49" style="edgeStyle=orthogonalEdgeStyle;rounded=1;orthogonalLoop=1;jettySize=auto;html=1;endArrow=none;endFill=0;strokeColor=default;elbow=vertical;entryX=0;entryY=0.5;entryDx=0;entryDy=0;fontStyle=0;exitX=0.5;exitY=1;exitDx=0;exitDy=0;" parent="1" source="yhOIqpPcjkazi2Z7zuX--2" target="a8zwOk9L44SKZ_68pjwN-35" edge="1">
          <mxGeometry relative="1" as="geometry">
            <mxPoint x="280" y="260" as="sourcePoint" />
            <mxPoint x="770" y="50" as="targetPoint" />
            <Array as="points" />
          </mxGeometry>
        </mxCell>
        <mxCell id="a8zwOk9L44SKZ_68pjwN-50" style="edgeStyle=orthogonalEdgeStyle;rounded=1;orthogonalLoop=1;jettySize=auto;html=1;exitX=0.5;exitY=0;exitDx=0;exitDy=0;endArrow=none;endFill=0;strokeColor=default;elbow=vertical;entryX=0;entryY=0.5;entryDx=0;entryDy=0;startArrow=none;fontStyle=0" parent="1" source="bo6uI4muf2ykNfwtQREq-3" target="a8zwOk9L44SKZ_68pjwN-35" edge="1">
          <mxGeometry relative="1" as="geometry">
            <mxPoint x="280" y="420" as="sourcePoint" />
            <mxPoint x="330" y="270" as="targetPoint" />
            <Array as="points" />
          </mxGeometry>
        </mxCell>
        <mxCell id="a8zwOk9L44SKZ_68pjwN-51" style="edgeStyle=orthogonalEdgeStyle;rounded=1;orthogonalLoop=1;jettySize=auto;html=1;exitX=1;exitY=0.5;exitDx=0;exitDy=0;endArrow=none;endFill=0;strokeColor=default;elbow=vertical;entryX=0.5;entryY=0;entryDx=0;entryDy=0;fontStyle=0" parent="1" source="a8zwOk9L44SKZ_68pjwN-35" target="a8zwOk9L44SKZ_68pjwN-37" edge="1">
          <mxGeometry relative="1" as="geometry">
            <mxPoint x="290" y="110" as="sourcePoint" />
            <mxPoint x="770" y="50" as="targetPoint" />
            <Array as="points" />
          </mxGeometry>
        </mxCell>
        <mxCell id="a8zwOk9L44SKZ_68pjwN-52" value="&lt;font face=&quot;Courier New&quot;&gt;&lt;span&gt;cacdmz&lt;/span&gt;&lt;br&gt;.10.36&lt;br&gt;&lt;/font&gt;" style="image;html=1;image=img/lib/clip_art/computers/Laptop_128x128.png;strokeColor=#3333FF;fontStyle=0" parent="1" vertex="1">
          <mxGeometry x="480" y="340" width="80" height="80" as="geometry" />
        </mxCell>
        <mxCell id="a8zwOk9L44SKZ_68pjwN-53" style="edgeStyle=orthogonalEdgeStyle;rounded=1;orthogonalLoop=1;jettySize=auto;html=1;exitX=1;exitY=0.5;exitDx=0;exitDy=0;endArrow=none;endFill=0;strokeColor=default;elbow=vertical;entryX=0.5;entryY=0;entryDx=0;entryDy=0;fontStyle=0" parent="1" source="a8zwOk9L44SKZ_68pjwN-35" target="a8zwOk9L44SKZ_68pjwN-52" edge="1">
          <mxGeometry relative="1" as="geometry">
            <mxPoint x="410" y="270" as="sourcePoint" />
            <mxPoint x="820" y="290" as="targetPoint" />
            <Array as="points">
              <mxPoint x="520" y="300" />
            </Array>
          </mxGeometry>
        </mxCell>
        <mxCell id="a8zwOk9L44SKZ_68pjwN-40" value="" style="image;html=1;image=img/lib/clip_art/networking/Switch_128x128.png;strokeColor=#3333FF;fontFamily=Courier New;fontStyle=0" parent="1" vertex="1">
          <mxGeometry x="240" y="540" width="80" height="80" as="geometry" />
        </mxCell>
        <mxCell id="o23Nrrs_6emBy7w_cN3G-14" style="edgeStyle=orthogonalEdgeStyle;rounded=1;orthogonalLoop=1;jettySize=auto;html=1;exitX=0.5;exitY=1;exitDx=0;exitDy=0;endArrow=none;endFill=0;strokeColor=default;elbow=vertical;entryX=0.5;entryY=1;entryDx=0;entryDy=0;strokeWidth=1;fontStyle=0" parent="1" source="o23Nrrs_6emBy7w_cN3G-13" target="a8zwOk9L44SKZ_68pjwN-40" edge="1">
          <mxGeometry relative="1" as="geometry">
            <mxPoint x="410" y="710" as="sourcePoint" />
            <mxPoint x="290" y="630" as="targetPoint" />
            <Array as="points">
              <mxPoint x="520" y="660" />
              <mxPoint x="280" y="660" />
            </Array>
          </mxGeometry>
        </mxCell>
        <mxCell id="o23Nrrs_6emBy7w_cN3G-13" value="&lt;span&gt;cacventas01&lt;/span&gt;" style="image;html=1;image=img/lib/clip_art/computers/Workstation_128x128.png;strokeColor=#3333FF;fontFamily=Courier New;fontStyle=0" parent="1" vertex="1">
          <mxGeometry x="480" y="540" width="80" height="80" as="geometry" />
        </mxCell>
        <mxCell id="arEiqzPymut2pV-jFZNy-123" style="edgeStyle=orthogonalEdgeStyle;rounded=1;orthogonalLoop=1;jettySize=auto;html=1;endArrow=none;endFill=0;strokeColor=default;elbow=vertical;entryX=0.5;entryY=1;entryDx=0;entryDy=0;strokeWidth=1;exitX=0.5;exitY=0;exitDx=0;exitDy=0;fontStyle=0" parent="1" source="a8zwOk9L44SKZ_68pjwN-61" target="a8zwOk9L44SKZ_68pjwN-40" edge="1">
          <mxGeometry relative="1" as="geometry">
            <mxPoint x="530" y="630" as="sourcePoint" />
            <mxPoint x="290" y="630" as="targetPoint" />
            <Array as="points" />
          </mxGeometry>
        </mxCell>
        <mxCell id="arEiqzPymut2pV-jFZNy-124" style="edgeStyle=orthogonalEdgeStyle;rounded=1;orthogonalLoop=1;jettySize=auto;html=1;exitX=0.5;exitY=1;exitDx=0;exitDy=0;endArrow=none;endFill=0;strokeColor=default;elbow=vertical;entryX=0.5;entryY=1;entryDx=0;entryDy=0;strokeWidth=1;fontStyle=0" parent="1" source="o23Nrrs_6emBy7w_cN3G-15" target="a8zwOk9L44SKZ_68pjwN-40" edge="1">
          <mxGeometry relative="1" as="geometry">
            <mxPoint x="540" y="640" as="sourcePoint" />
            <mxPoint x="300" y="640" as="targetPoint" />
            <Array as="points">
              <mxPoint x="640" y="660" />
              <mxPoint x="280" y="660" />
            </Array>
          </mxGeometry>
        </mxCell>
        <mxCell id="arEiqzPymut2pV-jFZNy-125" style="edgeStyle=orthogonalEdgeStyle;rounded=1;orthogonalLoop=1;jettySize=auto;html=1;exitX=0.5;exitY=0;exitDx=0;exitDy=0;endArrow=none;endFill=0;strokeColor=default;elbow=vertical;entryX=0.5;entryY=1;entryDx=0;entryDy=0;strokeWidth=1;fontStyle=0" parent="1" source="a8zwOk9L44SKZ_68pjwN-62" target="a8zwOk9L44SKZ_68pjwN-40" edge="1">
          <mxGeometry relative="1" as="geometry">
            <mxPoint x="550" y="650" as="sourcePoint" />
            <mxPoint x="310" y="650" as="targetPoint" />
            <Array as="points">
              <mxPoint x="640" y="660" />
              <mxPoint x="280" y="660" />
            </Array>
          </mxGeometry>
        </mxCell>
        <mxCell id="o23Nrrs_6emBy7w_cN3G-15" value="&lt;span&gt;cacventas02&lt;/span&gt;" style="image;html=1;image=img/lib/clip_art/computers/Workstation_128x128.png;strokeColor=#3333FF;fontFamily=Courier New;fontStyle=0" parent="1" vertex="1">
          <mxGeometry x="600" y="540" width="80" height="80" as="geometry" />
        </mxCell>
        <mxCell id="a8zwOk9L44SKZ_68pjwN-61" value="&lt;span&gt;cacventas03&lt;/span&gt;" style="image;html=1;image=img/lib/clip_art/computers/Workstation_128x128.png;strokeColor=#3333FF;fontFamily=Courier New;fontStyle=0" parent="1" vertex="1">
          <mxGeometry x="480" y="700" width="80" height="80" as="geometry" />
        </mxCell>
        <mxCell id="a8zwOk9L44SKZ_68pjwN-62" value="&lt;span&gt;cacventas04&lt;/span&gt;" style="image;html=1;image=img/lib/clip_art/computers/Workstation_128x128.png;strokeColor=#3333FF;fontFamily=Courier New;fontStyle=0" parent="1" vertex="1">
          <mxGeometry x="600" y="700" width="80" height="80" as="geometry" />
        </mxCell>
        <mxCell id="a1GQxm2-zjip5O00yzW4-6" value="&lt;font style=&quot;font-size: 12px;&quot; color=&quot;#000000&quot;&gt;.10.1&lt;/font&gt;" style="text;html=1;align=center;verticalAlign=middle;resizable=0;points=[];autosize=1;strokeColor=none;fillColor=none;fontColor=#B266FF;fontFamily=Courier New;fontStyle=0" parent="1" vertex="1">
          <mxGeometry x="220" y="500" width="60" height="30" as="geometry" />
        </mxCell>
        <mxCell id="a1GQxm2-zjip5O00yzW4-7" value="&lt;font style=&quot;font-size: 12px;&quot; color=&quot;#000000&quot;&gt;.10.34&lt;/font&gt;" style="text;html=1;align=center;verticalAlign=middle;resizable=0;points=[];autosize=1;strokeColor=none;fillColor=none;fontColor=#B266FF;fontFamily=Courier New;fontStyle=0" parent="1" vertex="1">
          <mxGeometry x="210" y="260" width="70" height="30" as="geometry" />
        </mxCell>
        <mxCell id="TXaRUqyJ7K6isS5sePby-6" value="&lt;font style=&quot;font-size: 12px;&quot; color=&quot;#000000&quot;&gt;.10.33&lt;/font&gt;" style="text;html=1;align=center;verticalAlign=middle;resizable=0;points=[];autosize=1;strokeColor=none;fillColor=none;fontColor=#B266FF;fontFamily=Courier New;fontStyle=0" parent="1" vertex="1">
          <mxGeometry x="280" y="400" width="70" height="30" as="geometry" />
        </mxCell>
        <mxCell id="bo6uI4muf2ykNfwtQREq-2" value="cafwbackend" style="group;verticalAlign=bottom;fontFamily=Courier New;labelBackgroundColor=default;fontStyle=0" parent="1" vertex="1" connectable="0">
          <mxGeometry x="240" y="420" width="80" height="80" as="geometry" />
        </mxCell>
        <mxCell id="bo6uI4muf2ykNfwtQREq-3" value="" style="image;html=1;image=img/lib/clip_art/networking/Router_128x128.png;strokeColor=#3333FF;fontStyle=0" parent="bo6uI4muf2ykNfwtQREq-2" vertex="1">
          <mxGeometry width="80" height="80" as="geometry" />
        </mxCell>
        <mxCell id="bo6uI4muf2ykNfwtQREq-4" value="" style="image;html=1;image=img/lib/clip_art/networking/Firewall_02_128x128.png;strokeColor=#3333FF;fontStyle=0" parent="bo6uI4muf2ykNfwtQREq-2" vertex="1">
          <mxGeometry width="30" height="30" as="geometry" />
        </mxCell>
        <mxCell id="a1GQxm2-zjip5O00yzW4-8" value="&lt;font style=&quot;font-size: 12px;&quot; color=&quot;#000000&quot;&gt;dhcp&lt;/font&gt;" style="text;html=1;align=center;verticalAlign=middle;resizable=0;points=[];autosize=1;strokeColor=none;fillColor=none;fontColor=#B266FF;fontFamily=Courier New;fontStyle=0" parent="1" vertex="1">
          <mxGeometry x="280" y="160" width="50" height="30" as="geometry" />
        </mxCell>
        <mxCell id="yhOIqpPcjkazi2Z7zuX--1" value="cafwfrontend" style="group;verticalAlign=bottom;fontFamily=Courier New;labelBackgroundColor=default;fontStyle=0" parent="1" vertex="1" connectable="0">
          <mxGeometry x="240" y="180" width="80" height="80" as="geometry" />
        </mxCell>
        <mxCell id="yhOIqpPcjkazi2Z7zuX--2" value="" style="image;html=1;image=img/lib/clip_art/networking/Router_128x128.png;strokeColor=#3333FF;fontStyle=0" parent="yhOIqpPcjkazi2Z7zuX--1" vertex="1">
          <mxGeometry width="80" height="80" as="geometry" />
        </mxCell>
        <mxCell id="yhOIqpPcjkazi2Z7zuX--3" value="" style="image;html=1;image=img/lib/clip_art/networking/Firewall_02_128x128.png;strokeColor=#3333FF;fontStyle=0" parent="yhOIqpPcjkazi2Z7zuX--1" vertex="1">
          <mxGeometry width="30" height="30" as="geometry" />
        </mxCell>
        <mxCell id="qa0n64Ku9Bl4njJ6WHnX-2" style="edgeStyle=orthogonalEdgeStyle;rounded=1;orthogonalLoop=1;jettySize=auto;html=1;endArrow=none;endFill=0;strokeColor=default;elbow=vertical;entryX=0.5;entryY=1;entryDx=0;entryDy=0;strokeWidth=1;fontStyle=0" parent="1" source="qa0n64Ku9Bl4njJ6WHnX-1" target="a8zwOk9L44SKZ_68pjwN-40" edge="1">
          <mxGeometry relative="1" as="geometry">
            <mxPoint x="530" y="630" as="sourcePoint" />
            <mxPoint x="290" y="630" as="targetPoint" />
            <Array as="points">
              <mxPoint x="160" y="660" />
              <mxPoint x="280" y="660" />
            </Array>
          </mxGeometry>
        </mxCell>
        <mxCell id="qa0n64Ku9Bl4njJ6WHnX-1" value="&lt;font face=&quot;Courier New&quot;&gt;&lt;span&gt;caclan&lt;br&gt;&lt;/span&gt;.10.5&lt;br&gt;&lt;/font&gt;" style="image;html=1;image=img/lib/clip_art/computers/Laptop_128x128.png;strokeColor=#3333FF;fontStyle=0" parent="1" vertex="1">
          <mxGeometry x="120" y="540" width="80" height="80" as="geometry" />
        </mxCell>
        <mxCell id="5iX69bP8DZIQJmz3BlHw-2" value="" style="edgeStyle=orthogonalEdgeStyle;rounded=1;orthogonalLoop=1;jettySize=auto;html=1;endArrow=none;endFill=0;strokeColor=default;elbow=vertical;fontStyle=0;exitX=0.5;exitY=0;exitDx=0;exitDy=0;" edge="1" parent="1" source="yhOIqpPcjkazi2Z7zuX--2" target="5iX69bP8DZIQJmz3BlHw-1">
          <mxGeometry relative="1" as="geometry">
            <mxPoint x="280" y="180" as="sourcePoint" />
            <Array as="points" />
            <mxPoint x="550" y="100" as="targetPoint" />
          </mxGeometry>
        </mxCell>
        <mxCell id="5iX69bP8DZIQJmz3BlHw-1" value="" style="image;html=1;image=img/lib/clip_art/networking/Switch_128x128.png;strokeColor=#3333FF;labelBorderColor=none;fontStyle=0" vertex="1" parent="1">
          <mxGeometry x="240" y="20" width="80" height="80" as="geometry" />
        </mxCell>
        <mxCell id="5iX69bP8DZIQJmz3BlHw-4" value="&lt;font face=&quot;Courier New&quot;&gt;&lt;span&gt;cacwan&lt;/span&gt;&lt;br&gt;&lt;/font&gt;" style="image;html=1;image=img/lib/clip_art/computers/Laptop_128x128.png;strokeColor=#3333FF;fontStyle=0" vertex="1" parent="1">
          <mxGeometry x="480" y="100" width="80" height="80" as="geometry" />
        </mxCell>
        <mxCell id="5iX69bP8DZIQJmz3BlHw-6" style="edgeStyle=orthogonalEdgeStyle;rounded=1;orthogonalLoop=1;jettySize=auto;html=1;endArrow=none;endFill=0;strokeColor=default;elbow=vertical;entryX=0.5;entryY=0;entryDx=0;entryDy=0;fontStyle=0;exitX=1;exitY=0.5;exitDx=0;exitDy=0;" edge="1" parent="1" source="5iX69bP8DZIQJmz3BlHw-1" target="5iX69bP8DZIQJmz3BlHw-4">
          <mxGeometry relative="1" as="geometry">
            <mxPoint x="330" y="70" as="sourcePoint" />
            <Array as="points" />
            <mxPoint x="650" y="90" as="targetPoint" />
          </mxGeometry>
        </mxCell>
      </root>
    </mxGraphModel>
  </diagram>
</mxfile>
